<svg fill="none" xmlns="http://www.w3.org/2000/svg" viewBox="0 0 278 254"><path d="M153 0C87.2 0 80.7 35.7 52 59.5 29.8 77.7 0 82.3 0 126c0 50.5 77 79.8 146.8 79.8 69.6 0 126.4-39.7 126.4-78.2C273.2 84.8 238 0 153 0Z" fill="#4580F7"/><path d="M277.5 61.4v47.8a9.1 9.1 0 0 1-9 9.1h-56a9.1 9.1 0 0 1-9.1-9.1V61.4a9.1 9.1 0 0 1 9.1-9h56a9.1 9.1 0 0 1 9 9Z" fill="#fff"/><path d="M255.7 52.3c-30 4.3-21.2 2-31.1 2-3 0-6 .8-9.2 1-1.5.2-3.2.3-4.6 1-9.4 4-2 21-4.5 31.8-.3 1.5-.9 3-1.1 4.4-.4 2.5.2 5-.1 7.5-.3 2-1 4-1.7 5.9V61.4a9.1 9.1 0 0 1 9.1-9h43.2Z" fill="#DBDFEA"/><path d="M268.4 118.8h-55.9a9.6 9.6 0 0 1-9.6-9.6V61.4a9.6 9.6 0 0 1 9.6-9.5h56a9.6 9.6 0 0 1 9.5 9.5v47.8a9.6 9.6 0 0 1-9.6 9.6Zm-55.9-66a8.7 8.7 0 0 0-8.7 8.6v47.8a8.7 8.7 0 0 0 8.7 8.6h56a8.7 8.7 0 0 0 8.6-8.6V61.4a8.7 8.7 0 0 0-8.7-8.6h-55.9Z" fill="#14171F"/><path d="M208.6 34.4v44.8a9.1 9.1 0 0 1-9 9h-98.4a9.1 9.1 0 0 1-9-9V34.4a9.1 9.1 0 0 1 9-9.1h98.3a9.1 9.1 0 0 1 9.1 9Z" fill="#fff"/><path d="M165 25.3c-7 1.2-14.7 3-20.7 6.9-5.6 3.7-5.3 3.7-14 3.1-11.9-.8-9.3 7.2-14 9.7-2.7 1.4-6-.1-9 .3-3.5.6-6 3.9-7 7.3-1.7 6.8 1.5 14.9-2.4 21-1.6 2.5-4.1 4.3-5.3 7.1l-.2.7a9 9 0 0 1-.3-2.2V34.4a9.1 9.1 0 0 1 9.1-9.1H165Z" fill="#fff"/><path d="M199.5 88.7h-98.3a9.6 9.6 0 0 1-9.5-9.5V34.4a9.6 9.6 0 0 1 9.5-9.6h98.3a9.6 9.6 0 0 1 9.6 9.6v44.8a9.6 9.6 0 0 1-9.6 9.5Zm-98.3-63a8.7 8.7 0 0 0-8.6 8.7v44.8a8.7 8.7 0 0 0 8.6 8.6h98.3a8.7 8.7 0 0 0 8.7-8.6V34.4a8.7 8.7 0 0 0-8.7-8.7h-98.3Z" fill="#14171F"/><path d="M105.1 51.8A23.4 23.4 0 0 0 127.7 70c18.9 0 23.5-28 40-28 14 0 14.7 16.5 28.8 16.5" stroke="#14171F" stroke-width=".8" stroke-linecap="round" stroke-linejoin="round"/><path d="M112.5 67.6a3.4 3.4 0 1 0 0-6.8 3.4 3.4 0 0 0 0 6.8ZM133 72.6a3.4 3.4 0 1 0 0-6.8 3.4 3.4 0 0 0 0 6.8ZM153.6 53.9a3.4 3.4 0 1 0 0-6.8 3.4 3.4 0 0 0 0 6.8ZM174.2 47a3.4 3.4 0 1 0 0-6.7 3.4 3.4 0 0 0 0 6.8ZM194.8 62a3.4 3.4 0 1 0 0-6.8 3.4 3.4 0 0 0 0 6.7Z" fill="#fff" stroke="#14171F" stroke-width=".8" stroke-linecap="round" stroke-linejoin="round"/><path d="M112.2 57.4V94a9.2 9.2 0 0 1-9.2 9.2H19a9.2 9.2 0 0 1-9.2-9.2V57.4a9.2 9.2 0 0 1 9.2-9.2h84a9.2 9.2 0 0 1 9.2 9.2Z" fill="#fff"/><path d="M95.3 48.2a129 129 0 0 1-16 2.7c-28.5 3-18.9-1.3-36.9-.8-3 0-22.9-.7-27.5 2.8-6.2 4.8-1.5 25.4-2.2 29-.4 2.2-1.4 4.3-1.1 6.5.1 1.6 1 3 1 4.6.2 1.7-.4 3.3-.2 5 0 1.2.5 2.4 1.3 3.4a9.2 9.2 0 0 1-4-7.5V57.4a9.2 9.2 0 0 1 9.3-9.2h76.3Z" fill="#DBDFEA"/><path d="M103 103.5H19A9.7 9.7 0 0 1 9.3 94V57.4a9.7 9.7 0 0 1 9.7-9.6h84a9.7 9.7 0 0 1 9.6 9.6V94a9.7 9.7 0 0 1-9.6 9.6ZM19 48.7a8.7 8.7 0 0 0-8.8 8.7V94a8.7 8.7 0 0 0 8.8 8.7h84a8.7 8.7 0 0 0 8.7-8.7V57.4a8.7 8.7 0 0 0-8.7-8.7H19Z" fill="#14171F"/><path d="M225.8 59a12 12 0 1 0 12 12 12 12 0 0 0-12-12Zm4.5 18.2a7.6 7.6 0 1 1 3.1-6.2 7.6 7.6 0 0 1-3.1 6.2Z" fill="#DBDFEA"/><path d="M225.8 83.4a12.5 12.5 0 0 1 0-25c7 0 12.5 5.7 12.5 12.6v.1a12.5 12.5 0 0 1-12.5 12.3Zm0-24a11.6 11.6 0 1 0 10.3 16.9c.8-1.6 1.3-3.4 1.3-5.2v-.2c0-6.3-5.2-11.5-11.6-11.5Zm0 19.6a8 8 0 1 1 8.1-8 8.1 8.1 0 0 1-8 8Zm0-15.2A7.2 7.2 0 1 0 233 71a7.2 7.2 0 0 0-7.2-7.2Z" fill="#14171F"/><path d="M225.8 87.9h-.2a12 12 0 1 0 .2 0Zm0 19.6a7.6 7.6 0 0 1-.2-15.2h.2a7.6 7.6 0 1 1 0 15.2Z" fill="#DBDFEA"/><path d="M225.8 112.4a12.5 12.5 0 0 1-.2-25h.2a12.5 12.5 0 0 1 0 25Zm0-24h-.2c-6.2 0-11.3 5.2-11.3 11.5A11.6 11.6 0 0 0 234 108a11.6 11.6 0 0 0-8.2-19.8Zm0 19.6a8 8 0 1 1-.2-16.2h.2a8 8 0 1 1 0 16.2Zm0-15.3h-.2a7.2 7.2 0 1 0 .2 0Z" fill="#14171F"/><path d="M254.9 59a11.9 11.9 0 0 0-10 5.1 12 12 0 0 0 18.4 15.3A12 12 0 0 0 255 59Zm0 19.6a7.6 7.6 0 1 1 0-15.3 7.6 7.6 0 0 1 0 15.3Z" fill="#DBDFEA"/><path d="M254.9 83.4a12.5 12.5 0 0 1 0-25 12.5 12.5 0 0 1 0 25Zm0-24a11.4 11.4 0 0 0-9.5 5c-1.4 2-2 4.2-2 6.6 0 6.3 5 11.5 11.5 11.5A11.6 11.6 0 0 0 266.4 71c0-6.4-5.2-11.6-11.5-11.6Zm0 19.6a8 8 0 0 1 0-16.1 8 8 0 0 1 0 16.1Zm0-15.2a7 7 0 0 0-6.4 3.9 7.1 7.1 0 1 0 6.4-4Z" fill="#14171F"/><path d="M254.9 87.9a12 12 0 1 0 0 24 12 12 0 0 0 0-24Zm0 19.6a7.6 7.6 0 1 1 0-15.2 7.6 7.6 0 0 1 0 15.2Z" fill="#DBDFEA"/><path d="M254.9 112.4a12.4 12.4 0 0 1-12-16.3 12.4 12.4 0 0 1 12-8.7 12.5 12.5 0 0 1 0 25Zm0-24a11.5 11.5 0 0 0-11.4 13.5 11.5 11.5 0 0 0 22.9-2c0-6.4-5.2-11.6-11.5-11.6Zm0 19.6a8 8 0 1 1 0-16.1 8 8 0 0 1 0 16Zm0-15.3a7.2 7.2 0 1 0 0 14.3 7.2 7.2 0 0 0 0-14.3Zm-17-21.6a12 12 0 0 1-5 9.6l-2.6-3.5a7.6 7.6 0 0 0 3.1-6.2h4.4Z" fill="#14171F"/><path d="M232.8 81.2a.5.5 0 0 1-.4-.2l-2.5-3.6a.4.4 0 0 1 0-.3.5.5 0 0 1 0-.3 7.2 7.2 0 0 0 3-5.8.5.5 0 0 1 .5-.4h4.4a.5.5 0 0 1 .4.3v.2a12.5 12.5 0 0 1-5.1 10h-.3v.1Zm-2-4 2.1 2.9a11.6 11.6 0 0 0 4.5-8.6h-3.5a8.1 8.1 0 0 1-3 5.8Zm36-6.2v1.8l-4.4-.7a7.6 7.6 0 0 0-10.2-8.3l-1.7-4c1.4-.6 2.9-.9 4.4-.9a12 12 0 0 1 12 12Z" fill="#14171F"/><path d="m266.7 73.3-4.4-.7a.5.5 0 0 1-.4-.6 7.2 7.2 0 0 0-9.6-7.8.5.5 0 0 1-.5-.2l-1.7-4.1a.5.5 0 0 1 0-.4.5.5 0 0 1 .3-.2 12.5 12.5 0 0 1 16.8 13.6.5.5 0 0 1-.5.4Zm-3.8-1.6 3.4.6.1-1.3a11.6 11.6 0 0 0-15.3-11l1.3 3.2a8 8 0 0 1 8.2 2 8 8 0 0 1 2.3 6.5ZM247.3 100v1.3l-4.3.8c-.3-2-.2-3.9.4-5.7l4.2 1.3c-.2.7-.3 1.5-.3 2.3Z" fill="#14171F"/><path d="M243 102.5a.5.5 0 0 1-.4-.4c-.3-2-.2-4 .4-6a.5.5 0 0 1 .6-.3l4.1 1.4a.5.5 0 0 1 .3.5 7.2 7.2 0 0 0-.2 3.5.5.5 0 0 1-.2.4h-.1l-4.4.9Zm.7-5.7c-.4 1.6-.5 3.1-.3 4.7l3.5-.6a8.7 8.7 0 0 1 .2-3l-3.4-1Zm-7.7 9.5a12 12 0 0 1-22.2-6.4 12 12 0 0 1 11.8-12v4.4a7.6 7.6 0 1 0 6.7 11.7l3.7 2.3Z" fill="#14171F"/><path d="M225.8 112.4a12.5 12.5 0 0 1-.2-25l.3.1.2.4v4.4a.5.5 0 0 1-.5.4 7.2 7.2 0 1 0 6.3 11l.3-.2h.3l3.8 2.4v.1l.2.2a.5.5 0 0 1 0 .3 12.4 12.4 0 0 1-10.7 5.9Zm-.6-24a11.6 11.6 0 1 0 10.2 18l-3-1.8a8 8 0 1 1-7.2-12.7v-3.6Z" fill="#14171F"/><path d="M215 243c-14.5-2.5-25.9-6.6-43-6.1l-2.8.1c-22.1 1.3-27.8 15.7-48.1 15.7-12.7 0-18.6-6.4-24.3-13.7-8.5 6.2-24 .5-22.2-12.3-13.4 3.2-27.5-10.2-17.3-23.4h-14a15 15 0 0 1-3.7-.4c-15.3-4-17.5-31.4 7.5-32.4-5.9-12.5 5-29.8 25-25.8 3.9-14 37.4-24.8 54.7-10.7 13.7-10.4 43.8-9 51.4 10.5a35.3 35.3 0 0 1 31.3 23.4c.6 1.6 1.1 3.3 1.5 5a23.8 23.8 0 0 1 20.3 36.1c19.1 13.2 3.6 37.6-16.4 34Z" fill="#DBDFEA"/><path d="M209.5 168c-3.6-2.3-6.8-6.4-10.5-8.7-4.2-2.6-9.4-3-13.8-5-7.9-3.9-12.2-12.7-19.6-17.2-7.3-4.4-16.6-4-25-2.2-5.3 1.2-10.6 2.9-16 2.2-4-.5-7.6-2.2-11.4-3.1A30.4 30.4 0 0 0 83 144c-2.1 2.6-3.8 5.6-6.5 7.4-4 2.6-9.7 2.3-13.1 5.6-5.8 5.5-2.6 17.6-9.8 21-2.3 1-5 .8-7.5 1.3-6.4 1.2-11 8-10.5 14.5a14 14 0 0 0 4 9C24.4 199 22 171.6 47 170.6c-5.9-12.5 5-29.8 25-25.8 3.9-14 37.4-24.8 54.7-10.7 13.7-10.4 43.8-9 51.4 10.5a35.3 35.3 0 0 1 31.3 23.4Z" fill="#fff"/><path d="M57.3 203.3h-14c-18.5 0-23-31.7 3.8-32.8-5.9-12.5 5-29.8 25-25.8 3.9-14 37.4-24.8 54.7-10.7 13.7-10.4 43.8-9 51.4 10.5 19.8 2 29.4 15 32.8 28.3a23.8 23.8 0 0 1 20.3 36.2c19.1 13.2 3.6 37.6-16.4 34-15.2-2.7-27-7-45.7-6-22.1 1.3-27.8 15.7-48.1 15.7-12.7 0-18.6-6.4-24.3-13.7-8.5 6.2-24 .5-22.2-12.3-13.4 3.2-27.5-10.2-17.3-23.4h0Zm0 0h55.4m35.8-75.4 10.7 10.7" stroke="#14171F" stroke-width=".8" stroke-linecap="round" stroke-linejoin="round"/><path d="m86 203.7 10.5 10.5H134m-87-43.7L61 184.3h35m-7.2-23-16.6-16.6m54.7-10.7-11 11h-12.4m99.3 11.4-29.4 29.4h-33.5" stroke="#14171F" stroke-width=".8" stroke-linecap="round" stroke-linejoin="round"/><path d="m164.9 185.8-15-15h-33.8m62.1-26.3L167.7 155h-23m-47.9 84 11.3-11.3M231.3 209l-17.9 18h-14.1m-49.5 15.4-11.4-11.5m26 6.6 29-29M229 181l-14.2 14.2m-32.4 24.1-17.3-17.3h-13" stroke="#14171F" stroke-width=".8" stroke-linecap="round" stroke-linejoin="round"/><path d="M115.2 205.8a2.5 2.5 0 1 0 0-5 2.5 2.5 0 0 0 0 5ZM149.6 204.6a2.5 2.5 0 1 0 0-5 2.5 2.5 0 0 0 0 5ZM136.6 216.7a2.5 2.5 0 1 0 0-5 2.5 2.5 0 0 0 0 5ZM196.8 229.4a2.5 2.5 0 1 0 0-5 2.5 2.5 0 0 0 0 5ZM137.3 188.3a2.5 2.5 0 1 0 0-5 2.5 2.5 0 0 0 0 5ZM113.6 173.4a2.5 2.5 0 1 0 0-5 2.5 2.5 0 0 0 0 5ZM98.4 186.8a2.5 2.5 0 1 0 0-5 2.5 2.5 0 0 0 0 5ZM90.5 165.6a2.5 2.5 0 1 0 0-5 2.5 2.5 0 0 0 0 5ZM136.6 231.6a2.5 2.5 0 1 0 0-5 2.5 2.5 0 0 0 0 5ZM109.8 228.5a2.5 2.5 0 1 0 0-5 2.5 2.5 0 0 0 0 5ZM213 199.6a2.5 2.5 0 1 0 0-5 2.5 2.5 0 0 0 0 5ZM195.1 209.2a2.5 2.5 0 1 0 0-5 2.5 2.5 0 0 0 0 5ZM161 142.9a2.5 2.5 0 1 0 0-5 2.5 2.5 0 0 0 0 5ZM142.3 157.5a2.5 2.5 0 1 0 0-5 2.5 2.5 0 0 0 0 5ZM101 147.4a2.5 2.5 0 1 0 0-5 2.5 2.5 0 0 0 0 5Z" fill="#fff" stroke="#14171F" stroke-width=".8" stroke-linecap="round" stroke-linejoin="round"/><path d="M30.7 106a2.5 2.5 0 1 0 0-5 2.5 2.5 0 0 0 0 5Z" fill="#14171F" stroke="#14171F" stroke-width=".9" stroke-linecap="round" stroke-linejoin="round"/><path d="M131.5 129.4 170.9 90" stroke="#14171F" stroke-width=".8" stroke-linecap="round" stroke-linejoin="round"/><path d="M172.7 90.8a2.5 2.5 0 1 0 0-5 2.5 2.5 0 0 0 0 5Z" fill="#14171F" stroke="#14171F" stroke-width=".9" stroke-linecap="round" stroke-linejoin="round"/><path d="M165.2 98.3a2.5 2.5 0 1 0 0-5 2.5 2.5 0 0 0 0 5Z" fill="#14171F" stroke="#14171F" stroke-width=".9" stroke-linecap="round" stroke-linejoin="round"/><path d="M241 120.6a2.5 2.5 0 1 0 0-5 2.5 2.5 0 0 0 0 5Z" fill="#14171F" stroke="#14171F" stroke-width=".9" stroke-linecap="round" stroke-linejoin="round"/><path d="M22.5 57.3h33v8.8h-33v-8.8Zm0 27h33V93h-33v-8.7Zm44-9.2h33v8.7h-33v-8.7Z" fill="#DBDFEA" stroke="#14171F" stroke-width=".8" stroke-linecap="round" stroke-linejoin="round"/><path d="M38.7 66v18.3M82.9 75v-5.2H38.7" stroke="#14171F" stroke-width=".8" stroke-linecap="round" stroke-linejoin="round"/></svg>