<svg width="256" height="158" viewBox="0 0 256 158" fill="none" xmlns="http://www.w3.org/2000/svg">
<g clip-path="url(#clip0_31_996)">
<path d="M8 63.1687H235.367C239.509 63.1687 242.867 66.5266 242.867 70.6687V113.637C242.867 117.779 239.509 121.137 235.367 121.137H8C3.85786 121.137 0.5 117.779 0.5 113.637V70.6687C0.5 66.5266 3.85787 63.1687 8 63.1687Z" stroke="#4580F7"/>
<path d="M231.756 110.026V74.2798L11.6112 74.2798V110.026L231.756 110.026Z" fill="white"/>
<path d="M194.725 74.2796V110.026H196.017V74.2796H194.725Z" fill="#9FC6FF"/>
<path d="M17.0991 79.2106V105.095H18.3918V79.2106H17.0991Z" fill="#9FC6FF"/>
<path d="M212.652 96.6347C211.712 96.6356 210.787 96.4047 209.958 95.9625C209.129 95.5203 208.422 94.8804 207.899 94.0995C207.377 93.3187 207.055 92.421 206.962 91.486C206.869 90.551 207.009 89.6075 207.368 88.7392C207.727 87.8709 208.294 87.1046 209.02 86.5081C209.746 85.9117 210.608 85.5035 211.53 85.3197C212.451 85.136 213.404 85.1824 214.303 85.4548C215.202 85.7272 216.02 86.2173 216.685 86.8815C217.484 87.6799 218.028 88.6973 218.249 89.8051C218.47 90.9128 218.357 92.0612 217.926 93.105C217.494 94.1488 216.763 95.0413 215.824 95.6695C214.885 96.2978 213.782 96.6337 212.652 96.6347ZM212.652 86.7576C211.688 86.7561 210.754 87.0888 210.008 87.6989C209.263 88.309 208.752 89.1589 208.562 90.1037C208.373 91.0485 208.517 92.0297 208.97 92.8801C209.423 93.7305 210.157 94.3975 211.047 94.7674C211.936 95.1374 212.927 95.1873 213.849 94.9088C214.772 94.6303 215.569 94.0405 216.105 93.24C216.642 92.4395 216.884 91.4778 216.79 90.5188C216.697 89.5597 216.274 88.6627 215.594 87.9806C215.208 87.5934 214.749 87.286 214.245 87.0762C213.74 86.8663 213.199 86.758 212.652 86.7576Z" fill="#9FC6FF"/>
<path d="M220.052 99.0808C219.951 99.0813 219.85 99.0618 219.755 99.0233C219.661 98.9848 219.575 98.928 219.503 98.8563L215.594 94.9859C215.45 94.8409 215.369 94.6447 215.369 94.4402C215.369 94.2357 215.45 94.0395 215.594 93.8945C215.666 93.8219 215.751 93.7644 215.846 93.7251C215.94 93.6858 216.041 93.6655 216.143 93.6655C216.246 93.6655 216.347 93.6858 216.441 93.7251C216.535 93.7644 216.621 93.8219 216.693 93.8945L220.602 97.7648C220.746 97.9099 220.827 98.1061 220.827 98.3106C220.827 98.5151 220.746 98.7112 220.602 98.8563C220.53 98.928 220.444 98.9848 220.35 99.0233C220.255 99.0618 220.154 99.0813 220.052 99.0808Z" fill="#9FC6FF"/>
<path d="M226.717 140.114H246.502L212.737 105.103L226.717 140.114Z" fill="#4580F7"/>
<path d="M212.737 105.103V154.102L216.228 150.611L226.717 140.114L212.737 105.103Z" fill="#709FFE"/>
<path d="M171.374 57.696C174.742 61.4362 177.393 65.7627 179.196 70.459H179.196L179.439 71.1295C182.677 80.0517 182.726 89.8196 179.578 98.774C176.431 107.728 170.28 115.317 162.172 120.25C154.063 125.184 144.497 127.158 135.097 125.838C125.744 124.524 117.131 120.029 110.705 113.111L102.246 70.9986C104.05 66.094 106.774 61.5791 110.271 57.696H171.374Z" fill="white" stroke="#4580F7"/>
<path d="M182.371 87.0828C181.931 96.8567 178.049 106.16 171.41 113.347H110.258C105.096 107.737 101.572 100.819 100.071 93.3443C98.5693 85.87 99.1479 78.127 101.744 70.959H179.925C181.802 76.1179 182.634 81.5991 182.371 87.0828Z" fill="white"/>
<path opacity="0.2" d="M182.371 87.0829C181.889 97.3682 177.601 107.107 170.34 114.407C163.079 121.708 153.363 126.048 143.081 126.584C132.798 127.121 122.683 123.815 114.702 117.31C106.72 110.805 101.442 101.565 99.8929 91.3861C98.3438 81.2068 100.634 70.815 106.319 62.2303C112.004 53.6455 120.678 47.4808 130.655 44.9341C140.631 42.3875 151.198 43.6408 160.303 48.4504C169.407 53.2601 176.398 61.2826 179.917 70.959C181.795 76.1181 182.629 81.5988 182.371 87.0829Z" fill="#D4E8FF"/>
<path opacity="0.4" d="M164.265 50.8177L104.499 105.359C104.19 104.809 103.896 104.244 103.617 103.679C101.787 100.019 100.517 96.1048 99.8472 92.0678L151.501 44.958C156.058 46.1707 160.375 48.1523 164.265 50.8177Z" fill="#D4E8FF"/>
<path opacity="0.4" d="M180.265 71.9885L124.037 123.232C118.212 120.658 113.056 116.781 108.966 111.899L170.365 55.9033C174.852 60.4372 178.239 65.9401 180.265 71.9885Z" fill="#D4E8FF"/>
<path d="M182.347 61.1515C177.604 52.9265 170.527 46.2934 162.013 42.0913C153.499 37.8893 143.929 36.3072 134.516 37.5453C125.102 38.7834 116.267 42.7859 109.129 49.0466C101.99 55.3072 96.8694 63.5445 94.4139 72.7163C91.9584 81.8881 92.2787 91.5821 95.3341 100.572C98.3896 109.562 104.043 117.443 111.579 123.219C119.115 128.995 128.195 132.405 137.67 133.02C147.144 133.634 156.589 131.423 164.807 126.669C175.814 120.3 183.844 109.824 187.133 97.5393C190.422 85.255 188.701 72.1677 182.347 61.1515ZM108.037 104.066C104.295 97.5857 102.558 90.1414 103.046 82.6743C103.535 75.2072 106.226 68.0525 110.781 62.1151C115.335 56.1777 121.548 51.7241 128.634 49.3175C135.719 46.911 143.359 46.6595 150.588 48.5949C157.816 50.5303 164.309 54.5656 169.244 60.1907C174.179 65.8157 177.335 72.7778 178.314 80.1967C179.292 87.6155 178.049 95.1579 174.741 101.87C171.433 108.582 166.209 114.163 159.729 117.906C151.043 122.92 140.723 124.282 131.034 121.693C121.345 119.103 113.079 112.775 108.052 104.097L108.037 104.066Z" fill="#4580F7"/>
<path d="M106.628 110.437C100.327 115.081 93.8711 119.485 87.3689 123.805C80.8668 128.124 74.3027 132.319 67.6921 136.438C61.0816 140.556 54.4168 144.604 47.7057 148.559C44.3694 150.564 40.9867 152.499 37.6428 154.466C35.9831 155.526 34.1717 156.327 32.2707 156.842C31.2571 157.111 30.2205 157.285 29.1745 157.361C28.0129 157.456 26.8436 157.394 25.6989 157.175C24.88 157.013 24.1011 156.691 23.4066 156.228C22.7121 155.765 22.1156 155.169 21.6512 154.476C21.1869 153.782 20.8637 153.004 20.7002 152.185C20.5367 151.367 20.5361 150.524 20.6984 149.705C20.7554 149.443 20.8278 149.185 20.9151 148.931C21.2919 147.835 21.8125 146.794 22.4633 145.835C23.0488 144.973 23.7121 144.168 24.4449 143.427C25.8465 142.045 27.4457 140.879 29.1899 139.967C32.5804 138.04 35.9398 136.097 39.3457 134.185C46.1188 130.315 52.9616 126.622 59.8276 122.938C66.6936 119.253 73.6292 115.685 80.6113 112.201C87.5934 108.718 94.6684 105.274 101.852 102.177C102.935 101.704 104.155 101.646 105.278 102.016C106.401 102.385 107.349 103.155 107.94 104.179C108.531 105.203 108.724 106.409 108.482 107.566C108.24 108.723 107.58 109.751 106.628 110.452V110.437Z" fill="#4580F7"/>
</g>
<defs>
<clipPath id="clip0_31_996">
<rect width="256" height="157.399" fill="white"/>
</clipPath>
</defs>
</svg>
